<svg width="23" height="22" viewBox="0 0 23 22" fill="none" xmlns="http://www.w3.org/2000/svg">
<path d="M21.6667 6V5.25C21.8854 5.25 22.0932 5.34547 22.2357 5.5114C22.3782 5.67733 22.4411 5.89719 22.408 6.11339L21.6667 6ZM1 6L0.258621 6.11339C0.225555 5.89719 0.288509 5.67733 0.430991 5.5114C0.573474 5.34547 0.781289 5.25 1 5.25V6ZM19.8895 17.6201L19.1481 17.5067L19.8895 17.6201ZM5.74272 19.4165H16.9239V20.9165H5.74272V19.4165ZM19.1481 17.5067L20.9253 5.88661L22.408 6.11339L20.6308 17.7334L19.1481 17.5067ZM21.6667 6.75H1V5.25H21.6667V6.75ZM1.74138 5.88661L3.51859 17.5067L2.03583 17.7334L0.258621 6.11339L1.74138 5.88661ZM16.9239 19.4165C18.0352 19.4165 18.9801 18.6052 19.1481 17.5067L20.6308 17.7334C20.3508 19.5643 18.7761 20.9165 16.9239 20.9165V19.4165ZM5.74272 20.9165C3.89058 20.9165 2.31584 19.5643 2.03583 17.7334L3.51859 17.5067C3.6866 18.6052 4.63143 19.4165 5.74272 19.4165V20.9165Z" fill="white"/>
<path d="M15.3333 6C15.3333 3.79086 13.5425 2 11.3333 2C9.12417 2 7.33331 3.79086 7.33331 6" stroke="white" stroke-width="1.5" stroke-linecap="round" stroke-linejoin="round"/>
</svg>
