<svg width="108" height="108" viewBox="0 0 108 108" fill="none" xmlns="http://www.w3.org/2000/svg">
<g filter="url(#filter0_d_1909_11845)">
<path fill-rule="evenodd" clip-rule="evenodd" d="M54 99.3333C77.9323 99.3333 99.3333 77.9323 99.3333 54C99.3333 30.0677 77.9323 8.66667 54 8.66667C30.0677 8.66667 8.66667 30.0677 8.66667 54C8.66667 77.9323 30.0677 99.3333 54 99.3333ZM54 104C81.6142 104 104 81.6142 104 54C104 26.3858 81.6142 4 54 4C26.3858 4 4 26.3858 4 54C4 81.6142 26.3858 104 54 104Z" fill="white"/>
</g>
<g filter="url(#filter1_d_1909_11845)">
<path d="M71.1055 54.0001L46.1055 68.4737L46.1055 39.5264L71.1055 54.0001Z" fill="white"/>
</g>
<defs>
<filter id="filter0_d_1909_11845" x="0" y="0" width="108" height="108" filterUnits="userSpaceOnUse" color-interpolation-filters="sRGB">
<feFlood flood-opacity="0" result="BackgroundImageFix"/>
<feColorMatrix in="SourceAlpha" type="matrix" values="0 0 0 0 0 0 0 0 0 0 0 0 0 0 0 0 0 0 127 0" result="hardAlpha"/>
<feOffset/>
<feGaussianBlur stdDeviation="2"/>
<feComposite in2="hardAlpha" operator="out"/>
<feColorMatrix type="matrix" values="0 0 0 0 0 0 0 0 0 0 0 0 0 0 0 0 0 0 0.15 0"/>
<feBlend mode="normal" in2="BackgroundImageFix" result="effect1_dropShadow_1909_11845"/>
<feBlend mode="normal" in="SourceGraphic" in2="effect1_dropShadow_1909_11845" result="shape"/>
</filter>
<filter id="filter1_d_1909_11845" x="41.1055" y="34.5264" width="35" height="38.9474" filterUnits="userSpaceOnUse" color-interpolation-filters="sRGB">
<feFlood flood-opacity="0" result="BackgroundImageFix"/>
<feColorMatrix in="SourceAlpha" type="matrix" values="0 0 0 0 0 0 0 0 0 0 0 0 0 0 0 0 0 0 127 0" result="hardAlpha"/>
<feOffset/>
<feGaussianBlur stdDeviation="2.5"/>
<feComposite in2="hardAlpha" operator="out"/>
<feColorMatrix type="matrix" values="0 0 0 0 0 0 0 0 0 0 0 0 0 0 0 0 0 0 0.2 0"/>
<feBlend mode="normal" in2="BackgroundImageFix" result="effect1_dropShadow_1909_11845"/>
<feBlend mode="normal" in="SourceGraphic" in2="effect1_dropShadow_1909_11845" result="shape"/>
</filter>
</defs>
</svg>
